<svg width="512" height="512" viewBox="0 0 512 512" fill="none" xmlns="http://www.w3.org/2000/svg">
<path d="M177.196 275.056L206.501 356.166C206.501 356.166 210.165 363.756 214.088 363.756C218.011 363.756 276.363 303.051 276.363 303.051L341.252 177.719L178.242 254.118L177.196 275.056Z" fill="#C8DAEA"/>
<path d="M216.052 295.857L210.426 355.644C210.426 355.644 208.071 373.963 226.386 355.644C244.701 337.324 262.232 323.198 262.232 323.198" fill="#A9C6D8"/>
<path d="M177.725 277.95L117.445 258.309C117.445 258.309 110.241 255.386 112.561 248.758C113.038 247.392 114.001 246.229 116.883 244.23C130.24 234.92 364.101 150.864 364.101 150.864C364.101 150.864 370.704 148.639 374.599 150.119C375.562 150.417 376.429 150.966 377.111 151.709C377.793 152.452 378.265 153.363 378.479 154.349C378.9 156.09 379.075 157.88 379.002 159.67C378.983 161.218 378.796 162.652 378.654 164.902C377.229 187.883 334.605 359.4 334.605 359.4C334.605 359.4 332.055 369.436 322.918 369.78C320.673 369.853 318.436 369.472 316.34 368.662C314.245 367.851 312.335 366.627 310.723 365.063C292.792 349.639 230.82 307.991 217.126 298.832C216.817 298.621 216.557 298.347 216.363 298.027C216.169 297.708 216.046 297.35 216.002 296.979C215.811 296.014 216.86 294.818 216.86 294.818C216.86 294.818 324.771 198.899 327.642 188.83C327.864 188.05 327.024 187.665 325.897 188.007C318.729 190.643 194.484 269.105 180.772 277.764C179.785 278.063 178.741 278.127 177.725 277.95V277.95Z" fill="white"/>
</svg>
